HIERARCHY
ROOT hip
{
  OFFSET 0 0 0
  CHANNELS 6 Xposition Yposition Zposition Zrotation Yrotation Xrotation
  JOINT abdomen
  {
    OFFSET 0 20.6881 -0.73152
    CHANNELS 3 Zrotation Xrotation Yrotation
    JOINT chest
    {
      OFFSET 0 11.7043 -0.48768
      CHANNELS 3 Zrotation Xrotation Yrotation
      JOINT neck
      {
        OFFSET 0 22.1894 -2.19456
        CHANNELS 3 Zrotation Xrotation Yrotation
        JOINT head
        {
          OFFSET -0.24384 7.07133 1.2192
          CHANNELS 3 Zrotation Xrotation Yrotation
          JOINT leftEye
          {
            OFFSET 4.14528 8.04674 8.04672
            CHANNELS 3 Zrotation Xrotation Yrotation
            End Site
            {
              OFFSET 1 0 0
            }
          }
          JOINT rightEye
          {
            OFFSET -3.6576 8.04674 8.04672
            CHANNELS 3 Zrotation Xrotation Yrotation
            End Site
            {
              OFFSET 1 0 0
            }
          }
        }
      }
      JOINT rCollar
      {
        OFFSET -2.68224 19.2634 -4.8768
        CHANNELS 3 Zrotation Xrotation Yrotation
        JOINT rShldr
        {
          OFFSET -8.77824 -1.95073 1.46304
          CHANNELS 3 Zrotation Xrotation Yrotation
          JOINT rForeArm
          {
            OFFSET -28.1742 -1.7115 0.48768
            CHANNELS 3 Zrotation Xrotation Yrotation
            JOINT rHand
            {
              OFFSET -22.5879 0.773209 7.07136
              CHANNELS 3 Zrotation Xrotation Yrotation
              JOINT rThumb1
              {
                OFFSET -1.2192 -0.487915 3.41376
                CHANNELS 3 Zrotation Xrotation Yrotation
                JOINT rThumb2
                {
                  OFFSET -3.37035 -0.52449 3.41376
                  CHANNELS 3 Zrotation Xrotation Yrotation
                  End Site
                  {
                    OFFSET -1.78271 -1.18214 1.43049
                  }
                }
              }
              JOINT rIndex1
              {
                OFFSET -7.75947 0.938293 5.60832
                CHANNELS 3 Zrotation Xrotation Yrotation
                JOINT rIndex2
                {
                  OFFSET -2.54057 -0.884171 1.56538
                  CHANNELS 3 Zrotation Xrotation Yrotation
                  End Site
                  {
                    OFFSET -1.62519 -0.234802 1.16502
                  }
                }
              }
              JOINT rMid1
              {
                OFFSET -8.24714 1.18213 3.41376
                CHANNELS 3 Zrotation Xrotation Yrotation
                JOINT rMid2
                {
                  OFFSET -3.10165 -0.590103 1.0647
                  CHANNELS 3 Zrotation Xrotation Yrotation
                  End Site
                  {
                    OFFSET -2.48547 -0.328903 0.83742
                  }
                }
              }
              JOINT rRing1
              {
                OFFSET -8.82822 0.546677 1.51678
                CHANNELS 3 Zrotation Xrotation Yrotation
                JOINT rRing2
                {
                  OFFSET -2.60934 -0.819778 -0.0198488
                  CHANNELS 3 Zrotation Xrotation Yrotation
                  End Site
                  {
                    OFFSET -2.33842 -0.294052 0.168128
                  }
                }
              }
              JOINT rPinky1
              {
                OFFSET -8.27202 -0.0477905 -0.4584
                CHANNELS 3 Zrotation Xrotation Yrotation
                JOINT rPinky2
                {
                  OFFSET -1.82734 -0.647385 -0.700984
                  CHANNELS 3 Zrotation Xrotation Yrotation
                  End Site
                  {
                    OFFSET -1.69225 -0.51767 -0.607171
                  }
                }
              }
            }
          }
        }
      }
      JOINT lCollar
      {
        OFFSET 2.68224 19.2634 -4.8768
        CHANNELS 3 Zrotation Xrotation Yrotation
        JOINT lShldr
        {
          OFFSET 8.77824 -1.95073 1.46304
          CHANNELS 3 Zrotation Xrotation Yrotation
          JOINT lForeArm
          {
            OFFSET 28.1742 -1.7115 0.48768
            CHANNELS 3 Zrotation Xrotation Yrotation
            JOINT lHand
            {
              OFFSET 22.5879 0.773209 7.07136
              CHANNELS 3 Zrotation Xrotation Yrotation
              JOINT lThumb1
              {
                OFFSET 1.2192 -0.487915 3.41376
                CHANNELS 3 Zrotation Xrotation Yrotation
                JOINT lThumb2
                {
                  OFFSET 3.37035 -0.52449 3.41376
                  CHANNELS 3 Zrotation Xrotation Yrotation
                  End Site
                  {
                    OFFSET 1.78271 -1.18214 1.43049
                  }
                }
              }
              JOINT lIndex1
              {
                OFFSET 7.75947 0.938293 5.60832
                CHANNELS 3 Zrotation Xrotation Yrotation
                JOINT lIndex2
                {
                  OFFSET 2.54057 -0.884171 1.56538
                  CHANNELS 3 Zrotation Xrotation Yrotation
                  End Site
                  {
                    OFFSET 1.62519 -0.234802 1.16502
                  }
                }
              }
              JOINT lMid1
              {
                OFFSET 8.24714 1.18213 3.41376
                CHANNELS 3 Zrotation Xrotation Yrotation
                JOINT lMid2
                {
                  OFFSET 3.10165 -0.590103 1.0647
                  CHANNELS 3 Zrotation Xrotation Yrotation
                  End Site
                  {
                    OFFSET 2.48547 -0.328903 0.83742
                  }
                }
              }
              JOINT lRing1
              {
                OFFSET 8.82822 0.546677 1.51678
                CHANNELS 3 Zrotation Xrotation Yrotation
                JOINT lRing2
                {
                  OFFSET 2.60934 -0.819778 -0.0198488
                  CHANNELS 3 Zrotation Xrotation Yrotation
                  End Site
                  {
                    OFFSET 2.33842 -0.294052 0.168128
                  }
                }
              }
              JOINT lPinky1
              {
                OFFSET 8.27202 -0.0477905 -0.4584
                CHANNELS 3 Zrotation Xrotation Yrotation
                JOINT lPinky2
                {
                  OFFSET 1.82734 -0.647385 -0.700984
                  CHANNELS 3 Zrotation Xrotation Yrotation
                  End Site
                  {
                    OFFSET 1.69225 -0.51767 -0.607171
                  }
                }
              }
            }
          }
        }
      }
    }
  }
  JOINT rButtock
  {
    OFFSET -8.77824 4.35084 1.2192
    CHANNELS 3 Zrotation Xrotation Yrotation
    JOINT rThigh
    {
      OFFSET 0 -1.70687 -2.19456
      CHANNELS 3 Zrotation Xrotation Yrotation
      JOINT rShin
      {
        OFFSET 0 -36.8199 0.73152
        CHANNELS 3 Zrotation Xrotation Yrotation
        JOINT rFoot
        {
          OFFSET 0.73152 -45.1104 -5.12064
          CHANNELS 3 Zrotation Xrotation Yrotation
          End Site
          {
            OFFSET -1.1221 -3.69964 12.103
          }
        }
      }
    }
  }
  JOINT lButtock
  {
    OFFSET 8.77824 4.35084 1.2192
    CHANNELS 3 Zrotation Xrotation Yrotation
    JOINT lThigh
    {
      OFFSET 0 -1.70687 -2.19456
      CHANNELS 3 Zrotation Xrotation Yrotation
      JOINT lShin
      {
        OFFSET 0 -36.8199 0.73152
        CHANNELS 3 Zrotation Xrotation Yrotation
        JOINT lFoot
        {
          OFFSET -0.73152 -45.1104 -5.12064
          CHANNELS 3 Zrotation Xrotation Yrotation
          End Site
          {
            OFFSET 1.1221 -3.69964 12.103
          }
        }
      }
    }
  }
}
MOTION
Frames:	4
Frame Time:	0.00833333
129.184 71.343 6.2915 -6.0683 -33.4878 7.6401 -14.5597 36.8046 5.83804 2.35132 -4.86909 0.157392 -15.5192 11.0076 -14.4757 34.3764 -49.7194 -15.2768 -0.0 0.0 0.0 -0.0 0.0 0.0 -1.3566e-13 2.49551e-14 2.02566e-13 78.2269 9.65366 5.19607 -17.2141 -9.86607 32.28 0.000491406 -0.260527 -0.0366231 1.13487e-09 -3.85539e-09 -5.89605e-10 1.96733e-09 -6.67528e-09 -1.0271e-09 1.13487e-09 -3.85538e-09 -5.89618e-10 7.73091 5.47488 0.417314 1.13486e-09 -3.85538e-09 -5.8961e-10 2.90554 0.965183 0.102902 1.13487e-09 -3.85539e-09 -5.89606e-10 10.2786 0.731801 0.0259123 1.13486e-09 -3.85539e-09 -5.896e-10 2.22167 -0.733487 -0.20892 -1.35837e-13 2.49386e-14 2.02301e-13 -69.6339 37.1155 -7.67613 26.4725 -24.7123 -58.8179 0.101931 9.06127 -1.28434 -3.17656e-09 2.77485e-09 2.49481e-09 -5.47448e-09 4.81875e-09 4.33262e-09 -3.17657e-09 2.77487e-09 2.49485e-09 -7.73091 5.47488 -0.417314 -3.17656e-09 2.77485e-09 2.49482e-09 -2.90554 0.965183 -0.102902 -3.17657e-09 2.77485e-09 2.49481e-09 -10.2786 0.731801 -0.0259123 -3.17656e-09 2.77485e-09 2.49481e-09 -2.22167 -0.733487 0.20892 -2.03217e-16 0.0 -3.88251e-19 -21.0935 -43.3855 -13.1185 -2.82771 74.9925 3.79028 -3.51814 -11.5737 -11.4445 2.03217e-16 0.0 3.88251e-19 28.1605 -45.4595 17.0229 1.47155 66.2839 -2.29938 -3.39283 -21.5446 -5.90032
129.146 71.3123 6.09708 -5.8001 -33.2161 7.2751 -14.4977 36.7065 5.92539 2.30561 -4.90532 0.188895 -15.5308 11.2401 -14.5958 34.6748 -49.6766 -15.4659 -0.0 0.0 0.0 -0.0 0.0 0.0 -1.93891e-13 -3.18153e-15 2.41871e-13 78.2974 9.89709 5.18788 -17.2633 -9.91602 32.3878 -0.000738344 -0.775875 -0.109049 1.72355e-09 -3.41026e-09 -1.56814e-10 2.98607e-09 -5.90478e-09 -2.79502e-10 1.72355e-09 -3.41026e-09 -1.56827e-10 7.73091 5.47488 0.417314 1.72355e-09 -3.41026e-09 -1.5682e-10 2.90554 0.965183 0.102902 1.72356e-09 -3.41026e-09 -1.56814e-10 10.2786 0.731801 0.0259123 1.72355e-09 -3.41026e-09 -1.56808e-10 2.22167 -0.733487 -0.20892 -1.9415e-13 -3.18133e-15 2.41573e-13 -69.4788 37.1666 -7.95881 26.3871 -24.4708 -58.4343 0.104477 9.1796 -1.30137 -3.47503e-09 3.5995e-09 2.91465e-09 -5.98857e-09 6.24753e-09 5.06114e-09 -3.47503e-09 3.59952e-09 2.91469e-09 -7.73091 5.47488 -0.417314 -3.47503e-09 3.5995e-09 2.91465e-09 -2.90554 0.965183 -0.102902 -3.47503e-09 3.5995e-09 2.91465e-09 -10.2786 0.731801 -0.0259123 -3.47502e-09 3.5995e-09 2.91464e-09 -2.22167 -0.733487 0.20892 -2.03217e-16 0.0 -3.88251e-19 -21.0581 -42.5332 -12.968 -2.88854 75.2513 3.86448 -3.72712 -11.2345 -12.2686 2.03217e-16 0.0 3.88251e-19 28.3269 -45.5279 17.0327 1.46915 66.1943 -2.27352 -3.59527 -21.3213 -6.34994
129.074 71.3217 5.91097 -5.6452 -32.9562 6.9316 -14.3528 36.6512 5.83717 2.356 -4.98247 0.184145 -15.6642 11.3169 -14.6602 35.0192 -49.4968 -15.4926 -0.0 0.0 0.0 -0.0 0.0 0.0 -2.8394e-13 4.85487e-14 4.10522e-13 78.2817 10.0762 5.24041 -17.2587 -9.91127 32.378 -0.00133822 -0.88273 -0.124071 1.4287e-09 -1.25156e-09 6.65723e-10 2.47382e-09 -2.16806e-09 1.14603e-09 1.4287e-09 -1.25156e-09 6.65711e-10 7.73091 5.47488 0.417314 1.4287e-09 -1.25156e-09 6.65718e-10 2.90554 0.965183 0.102902 1.42871e-09 -1.25156e-09 6.65724e-10 10.2786 0.731801 0.0259123 1.4287e-09 -1.25156e-09 6.65731e-10 2.22167 -0.733487 -0.20892 -2.84224e-13 4.85559e-14 4.10212e-13 -69.5858 36.996 -8.08332 26.3049 -24.2432 -58.0681 0.109892 9.42008 -1.33605 -2.72284e-09 2.94983e-09 2.14027e-09 -4.6951e-09 5.11897e-09 3.71827e-09 -2.72284e-09 2.94984e-09 2.14031e-09 -7.73091 5.47488 -0.417314 -2.72284e-09 2.94983e-09 2.14027e-09 -2.90554 0.965183 -0.102902 -2.72284e-09 2.94983e-09 2.14028e-09 -10.2786 0.731801 -0.0259123 -2.72283e-09 2.94983e-09 2.14027e-09 -2.22167 -0.733487 0.20892 -2.03217e-16 0.0 -3.88251e-19 -20.9286 -41.6325 -12.732 -2.95148 75.5141 3.94314 -3.9509 -11.4116 -12.8414 2.03217e-16 0.0 3.88251e-19 28.5526 -45.5425 17.0322 1.47389 66.1755 -2.25485 -3.80636 -21.2126 -6.79136
128.993 71.3282 5.70782 -5.3728 -32.7466 6.6492 -14.1611 36.6224 5.65019 2.46673 -5.08709 0.15924 -15.8806 11.3088 -14.6909 35.4217 -49.2482 -15.4074 -0.0 0.0 0.0 -0.0 0.0 0.0 -3.95216e-13 1.45902e-13 6.57536e-13 78.2137 10.2399 5.33141 -17.2297 -9.88166 32.3144 -0.00117592 -0.812403 -0.114185 6.01584e-10 2.05178e-09 1.74414e-09 1.03929e-09 3.55004e-09 3.01649e-09 6.01587e-10 2.05178e-09 1.74413e-09 7.73091 5.47488 0.417314 6.01584e-10 2.05178e-09 1.74414e-09 2.90554 0.965183 0.102902 6.01587e-10 2.05177e-09 1.74414e-09 10.2786 0.731801 0.0259123 6.0158e-10 2.05177e-09 1.74415e-09 2.22167 -0.733487 -0.20892 -3.95495e-13 1.45912e-13 6.57226e-13 -69.8625 36.6848 -8.11202 26.2215 -24.0166 -57.7021 0.117493 9.73856 -1.38209 -1.27154e-09 1.36186e-09 6.02187e-10 -2.19868e-09 2.36263e-09 1.05058e-09 -1.27154e-09 1.36187e-09 6.02206e-10 -7.73091 5.47488 -0.417314 -1.27154e-09 1.36185e-09 6.02181e-10 -2.90554 0.965183 -0.102902 -1.27154e-09 1.36185e-09 6.02191e-10 -10.2786 0.731801 -0.0259123 -1.27153e-09 1.36185e-09 6.02184e-10 -2.22167 -0.733487 0.20892 -2.03217e-16 0.0 -3.88251e-19 -20.7396 -40.6931 -12.4472 -3.00984 75.7558 4.01915 -4.21112 -11.9253 -13.2984 2.03217e-16 0.0 3.88251e-19 28.8266 -45.5214 17.0416 1.48223 66.1913 -2.23927 -4.02844 -21.1695 -7.23903
